<mxfile host="app.diagrams.net" agent="Mozilla/5.0 (Windows NT 10.0; Win64; x64) AppleWebKit/537.36 (KHTML, like Gecko) Chrome/134.0.0.0 Safari/537.36" version="26.1.0">
  <diagram id="C5RBs43oDa-KdzZeNtuy" name="Page-1">
    <mxGraphModel dx="1674" dy="738" grid="1" gridSize="10" guides="1" tooltips="1" connect="1" arrows="1" fold="1" page="1" pageScale="1" pageWidth="827" pageHeight="1169" math="0" shadow="0">
      <root>
        <mxCell id="WIyWlLk6GJQsqaUBKTNV-0" />
        <mxCell id="WIyWlLk6GJQsqaUBKTNV-1" parent="WIyWlLk6GJQsqaUBKTNV-0" />
        <mxCell id="y9xq7Atdog-D_ZD_Td7h-24" style="edgeStyle=orthogonalEdgeStyle;rounded=0;orthogonalLoop=1;jettySize=auto;html=1;" edge="1" parent="WIyWlLk6GJQsqaUBKTNV-1" source="y9xq7Atdog-D_ZD_Td7h-25" target="y9xq7Atdog-D_ZD_Td7h-27">
          <mxGeometry relative="1" as="geometry" />
        </mxCell>
        <mxCell id="y9xq7Atdog-D_ZD_Td7h-25" value="Start" style="ellipse;whiteSpace=wrap;html=1;" vertex="1" parent="WIyWlLk6GJQsqaUBKTNV-1">
          <mxGeometry x="350" y="60" width="120" height="80" as="geometry" />
        </mxCell>
        <mxCell id="y9xq7Atdog-D_ZD_Td7h-26" style="edgeStyle=orthogonalEdgeStyle;rounded=0;orthogonalLoop=1;jettySize=auto;html=1;entryX=0.5;entryY=0;entryDx=0;entryDy=0;" edge="1" parent="WIyWlLk6GJQsqaUBKTNV-1" source="y9xq7Atdog-D_ZD_Td7h-27" target="y9xq7Atdog-D_ZD_Td7h-32">
          <mxGeometry relative="1" as="geometry" />
        </mxCell>
        <mxCell id="y9xq7Atdog-D_ZD_Td7h-27" value="int num&lt;div&gt;int&amp;nbsp;strenghtOfNumber = 1&lt;/div&gt;" style="shape=parallelogram;perimeter=parallelogramPerimeter;whiteSpace=wrap;html=1;fixedSize=1;" vertex="1" parent="WIyWlLk6GJQsqaUBKTNV-1">
          <mxGeometry x="330" y="180" width="160" height="100" as="geometry" />
        </mxCell>
        <mxCell id="y9xq7Atdog-D_ZD_Td7h-28" style="edgeStyle=orthogonalEdgeStyle;rounded=0;orthogonalLoop=1;jettySize=auto;html=1;entryX=0;entryY=0.5;entryDx=0;entryDy=0;" edge="1" parent="WIyWlLk6GJQsqaUBKTNV-1">
          <mxGeometry relative="1" as="geometry">
            <mxPoint x="520" y="424.5" as="sourcePoint" />
            <mxPoint x="610" y="424.5" as="targetPoint" />
          </mxGeometry>
        </mxCell>
        <mxCell id="y9xq7Atdog-D_ZD_Td7h-48" value="true&lt;div&gt;&lt;br&gt;&lt;/div&gt;" style="edgeLabel;html=1;align=center;verticalAlign=middle;resizable=0;points=[];" vertex="1" connectable="0" parent="y9xq7Atdog-D_ZD_Td7h-28">
          <mxGeometry x="-0.0444" y="9" relative="1" as="geometry">
            <mxPoint y="15" as="offset" />
          </mxGeometry>
        </mxCell>
        <mxCell id="y9xq7Atdog-D_ZD_Td7h-30" style="edgeStyle=orthogonalEdgeStyle;rounded=0;orthogonalLoop=1;jettySize=auto;html=1;" edge="1" parent="WIyWlLk6GJQsqaUBKTNV-1" source="y9xq7Atdog-D_ZD_Td7h-32">
          <mxGeometry relative="1" as="geometry">
            <mxPoint x="410" y="580" as="targetPoint" />
          </mxGeometry>
        </mxCell>
        <mxCell id="y9xq7Atdog-D_ZD_Td7h-31" value="???" style="edgeLabel;html=1;align=center;verticalAlign=middle;resizable=0;points=[];" vertex="1" connectable="0" parent="y9xq7Atdog-D_ZD_Td7h-30">
          <mxGeometry x="-0.1802" y="-2" relative="1" as="geometry">
            <mxPoint as="offset" />
          </mxGeometry>
        </mxCell>
        <mxCell id="y9xq7Atdog-D_ZD_Td7h-32" value="int i = 0; i &amp;lt; num; i++" style="shape=hexagon;perimeter=hexagonPerimeter2;whiteSpace=wrap;html=1;fixedSize=1;" vertex="1" parent="WIyWlLk6GJQsqaUBKTNV-1">
          <mxGeometry x="300" y="350" width="220" height="150" as="geometry" />
        </mxCell>
        <mxCell id="y9xq7Atdog-D_ZD_Td7h-33" style="edgeStyle=orthogonalEdgeStyle;rounded=0;orthogonalLoop=1;jettySize=auto;html=1;entryX=0;entryY=0.5;entryDx=0;entryDy=0;" edge="1" parent="WIyWlLk6GJQsqaUBKTNV-1" source="y9xq7Atdog-D_ZD_Td7h-35" target="y9xq7Atdog-D_ZD_Td7h-36">
          <mxGeometry relative="1" as="geometry" />
        </mxCell>
        <mxCell id="y9xq7Atdog-D_ZD_Td7h-34" value="true" style="edgeLabel;html=1;align=center;verticalAlign=middle;resizable=0;points=[];" vertex="1" connectable="0" parent="y9xq7Atdog-D_ZD_Td7h-33">
          <mxGeometry x="-0.2" y="4" relative="1" as="geometry">
            <mxPoint as="offset" />
          </mxGeometry>
        </mxCell>
        <mxCell id="y9xq7Atdog-D_ZD_Td7h-35" value="num != strenghtOfNumber" style="rhombus;whiteSpace=wrap;html=1;" vertex="1" parent="WIyWlLk6GJQsqaUBKTNV-1">
          <mxGeometry x="610" y="350" width="160" height="150" as="geometry" />
        </mxCell>
        <mxCell id="y9xq7Atdog-D_ZD_Td7h-36" value="strenghtOfNumber *= 2" style="rounded=0;whiteSpace=wrap;html=1;" vertex="1" parent="WIyWlLk6GJQsqaUBKTNV-1">
          <mxGeometry x="820" y="360" width="150" height="130" as="geometry" />
        </mxCell>
        <mxCell id="y9xq7Atdog-D_ZD_Td7h-37" style="edgeStyle=orthogonalEdgeStyle;rounded=0;orthogonalLoop=1;jettySize=auto;html=1;entryX=0.75;entryY=0.007;entryDx=0;entryDy=0;entryPerimeter=0;" edge="1" parent="WIyWlLk6GJQsqaUBKTNV-1" source="y9xq7Atdog-D_ZD_Td7h-36" target="y9xq7Atdog-D_ZD_Td7h-32">
          <mxGeometry relative="1" as="geometry">
            <Array as="points">
              <mxPoint x="895" y="310" />
              <mxPoint x="465" y="310" />
            </Array>
          </mxGeometry>
        </mxCell>
        <mxCell id="y9xq7Atdog-D_ZD_Td7h-38" value="num == strenghtOfNumber" style="rhombus;whiteSpace=wrap;html=1;" vertex="1" parent="WIyWlLk6GJQsqaUBKTNV-1">
          <mxGeometry x="322.5" y="580" width="175" height="160" as="geometry" />
        </mxCell>
        <mxCell id="y9xq7Atdog-D_ZD_Td7h-39" value="Quvvetidir" style="shape=document;whiteSpace=wrap;html=1;boundedLbl=1;" vertex="1" parent="WIyWlLk6GJQsqaUBKTNV-1">
          <mxGeometry x="580" y="630" width="120" height="80" as="geometry" />
        </mxCell>
        <mxCell id="y9xq7Atdog-D_ZD_Td7h-40" style="edgeStyle=orthogonalEdgeStyle;rounded=0;orthogonalLoop=1;jettySize=auto;html=1;entryX=-0.017;entryY=0.363;entryDx=0;entryDy=0;entryPerimeter=0;" edge="1" parent="WIyWlLk6GJQsqaUBKTNV-1" source="y9xq7Atdog-D_ZD_Td7h-38" target="y9xq7Atdog-D_ZD_Td7h-39">
          <mxGeometry relative="1" as="geometry" />
        </mxCell>
        <mxCell id="y9xq7Atdog-D_ZD_Td7h-41" value="true" style="edgeLabel;html=1;align=center;verticalAlign=middle;resizable=0;points=[];" vertex="1" connectable="0" parent="y9xq7Atdog-D_ZD_Td7h-40">
          <mxGeometry x="-0.1284" y="1" relative="1" as="geometry">
            <mxPoint as="offset" />
          </mxGeometry>
        </mxCell>
        <mxCell id="y9xq7Atdog-D_ZD_Td7h-42" value="Deyil" style="shape=document;whiteSpace=wrap;html=1;boundedLbl=1;" vertex="1" parent="WIyWlLk6GJQsqaUBKTNV-1">
          <mxGeometry x="150" y="630" width="120" height="80" as="geometry" />
        </mxCell>
        <mxCell id="y9xq7Atdog-D_ZD_Td7h-43" style="edgeStyle=orthogonalEdgeStyle;rounded=0;orthogonalLoop=1;jettySize=auto;html=1;entryX=0.967;entryY=0.35;entryDx=0;entryDy=0;entryPerimeter=0;" edge="1" parent="WIyWlLk6GJQsqaUBKTNV-1" source="y9xq7Atdog-D_ZD_Td7h-38" target="y9xq7Atdog-D_ZD_Td7h-42">
          <mxGeometry relative="1" as="geometry" />
        </mxCell>
        <mxCell id="y9xq7Atdog-D_ZD_Td7h-44" value="false" style="edgeLabel;html=1;align=center;verticalAlign=middle;resizable=0;points=[];" vertex="1" connectable="0" parent="y9xq7Atdog-D_ZD_Td7h-43">
          <mxGeometry x="-0.2302" y="-3" relative="1" as="geometry">
            <mxPoint x="1" as="offset" />
          </mxGeometry>
        </mxCell>
        <mxCell id="y9xq7Atdog-D_ZD_Td7h-45" value="End" style="ellipse;whiteSpace=wrap;html=1;" vertex="1" parent="WIyWlLk6GJQsqaUBKTNV-1">
          <mxGeometry x="350" y="830" width="120" height="80" as="geometry" />
        </mxCell>
        <mxCell id="y9xq7Atdog-D_ZD_Td7h-46" style="edgeStyle=orthogonalEdgeStyle;rounded=0;orthogonalLoop=1;jettySize=auto;html=1;entryX=1.008;entryY=0.613;entryDx=0;entryDy=0;entryPerimeter=0;" edge="1" parent="WIyWlLk6GJQsqaUBKTNV-1" source="y9xq7Atdog-D_ZD_Td7h-39" target="y9xq7Atdog-D_ZD_Td7h-45">
          <mxGeometry relative="1" as="geometry">
            <Array as="points">
              <mxPoint x="640" y="879" />
            </Array>
          </mxGeometry>
        </mxCell>
        <mxCell id="y9xq7Atdog-D_ZD_Td7h-47" style="edgeStyle=orthogonalEdgeStyle;rounded=0;orthogonalLoop=1;jettySize=auto;html=1;entryX=-0.008;entryY=0.613;entryDx=0;entryDy=0;entryPerimeter=0;" edge="1" parent="WIyWlLk6GJQsqaUBKTNV-1" source="y9xq7Atdog-D_ZD_Td7h-42" target="y9xq7Atdog-D_ZD_Td7h-45">
          <mxGeometry relative="1" as="geometry">
            <Array as="points">
              <mxPoint x="210" y="879" />
            </Array>
          </mxGeometry>
        </mxCell>
      </root>
    </mxGraphModel>
  </diagram>
</mxfile>
